<svg xmlns="http://www.w3.org/2000/svg" xmlns:xlink="http://www.w3.org/1999/xlink" width="800" zoomAndPan="magnify" viewBox="0 0 600 104.999996" height="140" preserveAspectRatio="xMidYMid meet" version="1.0"><defs><g/></defs><g fill="#000000" fill-opacity="1"><g transform="translate(7.171886, 87.374992)"><g><path d="M 56.984375 -70.546875 L 56.984375 -56.78125 L 38.296875 -56.78125 L 38.296875 0 L 21.109375 0 L 21.109375 -56.78125 L 2.40625 -56.78125 L 2.40625 -70.546875 Z M 56.984375 -70.546875 "/></g></g></g><g fill="#000000" fill-opacity="1"><g transform="translate(66.560435, 87.374992)"><g><path d="M 23.109375 -70.546875 L 23.109375 -28.34375 C 23.109375 -24.125 24.144531 -20.875 26.21875 -18.59375 C 28.300781 -16.3125 31.351562 -15.171875 35.375 -15.171875 C 39.394531 -15.171875 42.476562 -16.3125 44.625 -18.59375 C 46.769531 -20.875 47.84375 -24.125 47.84375 -28.34375 L 47.84375 -70.546875 L 65.03125 -70.546875 L 65.03125 -28.4375 C 65.03125 -22.144531 63.6875 -16.816406 61 -12.453125 C 58.320312 -8.097656 54.722656 -4.816406 50.203125 -2.609375 C 45.679688 -0.398438 40.640625 0.703125 35.078125 0.703125 C 29.515625 0.703125 24.535156 -0.382812 20.140625 -2.5625 C 15.753906 -4.738281 12.285156 -8.019531 9.734375 -12.40625 C 7.191406 -16.800781 5.921875 -22.144531 5.921875 -28.4375 L 5.921875 -70.546875 Z M 23.109375 -70.546875 "/></g></g></g><g fill="#000000" fill-opacity="1"><g transform="translate(137.404644, 87.374992)"><g><path d="M 56.984375 -70.546875 L 56.984375 -56.78125 L 38.296875 -56.78125 L 38.296875 0 L 21.109375 0 L 21.109375 -56.78125 L 2.40625 -56.78125 L 2.40625 -70.546875 Z M 56.984375 -70.546875 "/></g></g></g><g fill="#000000" fill-opacity="1"><g transform="translate(196.793193, 87.374992)"><g><path d="M 39.59375 0.703125 C 32.957031 0.703125 26.875 -0.835938 21.34375 -3.921875 C 15.820312 -7.003906 11.4375 -11.304688 8.1875 -16.828125 C 4.9375 -22.359375 3.3125 -28.570312 3.3125 -35.46875 C 3.3125 -42.375 4.9375 -48.570312 8.1875 -54.0625 C 11.4375 -59.5625 15.820312 -63.851562 21.34375 -66.9375 C 26.875 -70.019531 32.957031 -71.5625 39.59375 -71.5625 C 46.226562 -71.5625 52.304688 -70.019531 57.828125 -66.9375 C 63.359375 -63.851562 67.710938 -59.5625 70.890625 -54.0625 C 74.078125 -48.570312 75.671875 -42.375 75.671875 -35.46875 C 75.671875 -28.570312 74.0625 -22.359375 70.84375 -16.828125 C 67.632812 -11.304688 63.28125 -7.003906 57.78125 -3.921875 C 52.289062 -0.835938 46.226562 0.703125 39.59375 0.703125 Z M 39.59375 -14.96875 C 45.21875 -14.96875 49.722656 -16.84375 53.109375 -20.59375 C 56.492188 -24.351562 58.1875 -29.3125 58.1875 -35.46875 C 58.1875 -41.707031 56.492188 -46.6875 53.109375 -50.40625 C 49.722656 -54.125 45.21875 -55.984375 39.59375 -55.984375 C 33.894531 -55.984375 29.351562 -54.140625 25.96875 -50.453125 C 22.59375 -46.765625 20.90625 -41.769531 20.90625 -35.46875 C 20.90625 -29.238281 22.59375 -24.265625 25.96875 -20.546875 C 29.351562 -16.828125 33.894531 -14.96875 39.59375 -14.96875 Z M 39.59375 -14.96875 "/></g></g></g><g fill="#000000" fill-opacity="1"><g transform="translate(275.776944, 87.374992)"><g><path d="M 42.203125 0 L 27.53125 -26.625 L 23.421875 -26.625 L 23.421875 0 L 6.234375 0 L 6.234375 -70.546875 L 35.078125 -70.546875 C 40.640625 -70.546875 45.378906 -69.570312 49.296875 -67.625 C 53.210938 -65.6875 56.140625 -63.023438 58.078125 -59.640625 C 60.023438 -56.265625 61 -52.5 61 -48.34375 C 61 -43.65625 59.675781 -39.46875 57.03125 -35.78125 C 54.382812 -32.09375 50.484375 -29.476562 45.328125 -27.9375 L 61.609375 0 Z M 23.421875 -38.796875 L 34.0625 -38.796875 C 37.21875 -38.796875 39.582031 -39.566406 41.15625 -41.109375 C 42.726562 -42.648438 43.515625 -44.828125 43.515625 -47.640625 C 43.515625 -50.316406 42.726562 -52.425781 41.15625 -53.96875 C 39.582031 -55.507812 37.21875 -56.28125 34.0625 -56.28125 L 23.421875 -56.28125 Z M 23.421875 -38.796875 "/></g></g></g><g fill="#006c67" fill-opacity="1"><g transform="translate(341.296859, 87.374992)"><g><path d="M 103.3125 -70.546875 L 84.921875 0 L 64.125 0 L 52.859375 -46.4375 L 41.203125 0 L 20.40625 0 L 2.515625 -70.546875 L 20.90625 -70.546875 L 31.046875 -19.203125 L 43.609375 -70.546875 L 62.515625 -70.546875 L 74.578125 -19.203125 L 84.828125 -70.546875 Z M 103.3125 -70.546875 "/></g></g></g><g fill="#006c67" fill-opacity="1"><g transform="translate(447.010482, 87.374992)"><g><path d="M 23.421875 -70.546875 L 23.421875 0 L 6.234375 0 L 6.234375 -70.546875 Z M 23.421875 -70.546875 "/></g></g></g><g fill="#006c67" fill-opacity="1"><g transform="translate(476.654511, 87.374992)"><g><path d="M 31.765625 0.703125 C 26.597656 0.703125 21.972656 -0.132812 17.890625 -1.8125 C 13.804688 -3.488281 10.539062 -5.96875 8.09375 -9.25 C 5.644531 -12.53125 4.351562 -16.484375 4.21875 -21.109375 L 22.515625 -21.109375 C 22.773438 -18.492188 23.675781 -16.5 25.21875 -15.125 C 26.757812 -13.75 28.769531 -13.0625 31.25 -13.0625 C 33.800781 -13.0625 35.8125 -13.644531 37.28125 -14.8125 C 38.757812 -15.988281 39.5 -17.617188 39.5 -19.703125 C 39.5 -21.441406 38.910156 -22.878906 37.734375 -24.015625 C 36.566406 -25.160156 35.128906 -26.097656 33.421875 -26.828125 C 31.710938 -27.566406 29.28125 -28.40625 26.125 -29.34375 C 21.570312 -30.75 17.851562 -32.15625 14.96875 -33.5625 C 12.09375 -34.96875 9.613281 -37.046875 7.53125 -39.796875 C 5.457031 -42.546875 4.421875 -46.128906 4.421875 -50.546875 C 4.421875 -57.117188 6.796875 -62.265625 11.546875 -65.984375 C 16.304688 -69.703125 22.507812 -71.5625 30.15625 -71.5625 C 37.925781 -71.5625 44.1875 -69.703125 48.9375 -65.984375 C 53.695312 -62.265625 56.242188 -57.085938 56.578125 -50.453125 L 37.984375 -50.453125 C 37.847656 -52.734375 37.007812 -54.523438 35.46875 -55.828125 C 33.9375 -57.128906 31.960938 -57.78125 29.546875 -57.78125 C 27.472656 -57.78125 25.796875 -57.226562 24.515625 -56.125 C 23.242188 -55.019531 22.609375 -53.429688 22.609375 -51.359375 C 22.609375 -49.078125 23.679688 -47.300781 25.828125 -46.03125 C 27.972656 -44.757812 31.320312 -43.382812 35.875 -41.90625 C 40.4375 -40.363281 44.140625 -38.890625 46.984375 -37.484375 C 49.828125 -36.078125 52.285156 -34.035156 54.359375 -31.359375 C 56.441406 -28.679688 57.484375 -25.226562 57.484375 -21 C 57.484375 -16.976562 56.460938 -13.328125 54.421875 -10.046875 C 52.378906 -6.765625 49.414062 -4.148438 45.53125 -2.203125 C 41.644531 -0.265625 37.054688 0.703125 31.765625 0.703125 Z M 31.765625 0.703125 "/></g></g></g><g fill="#006c67" fill-opacity="1"><g transform="translate(538.454787, 87.374992)"><g><path d="M 23.421875 -56.78125 L 23.421875 -42.515625 L 46.4375 -42.515625 L 46.4375 -29.25 L 23.421875 -29.25 L 23.421875 -13.765625 L 49.453125 -13.765625 L 49.453125 0 L 6.234375 0 L 6.234375 -70.546875 L 49.453125 -70.546875 L 49.453125 -56.78125 Z M 23.421875 -56.78125 "/></g></g></g></svg>