<svg xmlns="http://www.w3.org/2000/svg" xmlns:xlink="http://www.w3.org/1999/xlink" width="2000" zoomAndPan="magnify" viewBox="0 0 1500 1499.999933" height="2000" preserveAspectRatio="xMidYMid meet" version="1.0"><defs><g/><clipPath id="2a62ccaf8e"><rect x="0" width="1480" y="0" height="356"/></clipPath></defs><rect x="-150" width="1800" fill="#ffffff" y="-149.999993" height="1799.99992" fill-opacity="1"/><rect x="-150" width="1800" fill="#ffffff" y="-149.999993" height="1799.99992" fill-opacity="1"/><g transform="matrix(1, 0, 0, 1, 10, 572)"><g clip-path="url(#2a62ccaf8e)"><g fill="#000000" fill-opacity="1"><g transform="translate(0.589227, 265.706641)"><g><path d="M 143.875 -178.125 L 143.875 -143.359375 L 96.671875 -143.359375 L 96.671875 0 L 53.28125 0 L 53.28125 -143.359375 L 6.09375 -143.359375 L 6.09375 -178.125 Z M 143.875 -178.125 "/></g></g></g><g fill="#000000" fill-opacity="1"><g transform="translate(150.548857, 265.706641)"><g><path d="M 58.359375 -178.125 L 58.359375 -71.546875 C 58.359375 -60.890625 60.976562 -52.6875 66.21875 -46.9375 C 71.46875 -41.1875 79.164062 -38.3125 89.3125 -38.3125 C 99.457031 -38.3125 107.238281 -41.1875 112.65625 -46.9375 C 118.070312 -52.6875 120.78125 -60.890625 120.78125 -71.546875 L 120.78125 -178.125 L 164.171875 -178.125 L 164.171875 -71.8125 C 164.171875 -55.90625 160.785156 -42.453125 154.015625 -31.453125 C 147.253906 -20.460938 138.160156 -12.175781 126.734375 -6.59375 C 115.316406 -1.007812 102.585938 1.78125 88.546875 1.78125 C 74.515625 1.78125 61.957031 -0.96875 50.875 -6.46875 C 39.789062 -11.96875 31.035156 -20.253906 24.609375 -31.328125 C 18.179688 -42.410156 14.96875 -55.90625 14.96875 -71.8125 L 14.96875 -178.125 Z M 58.359375 -178.125 "/></g></g></g><g fill="#000000" fill-opacity="1"><g transform="translate(329.434753, 265.706641)"><g><path d="M 143.875 -178.125 L 143.875 -143.359375 L 96.671875 -143.359375 L 96.671875 0 L 53.28125 0 L 53.28125 -143.359375 L 6.09375 -143.359375 L 6.09375 -178.125 Z M 143.875 -178.125 "/></g></g></g><g fill="#000000" fill-opacity="1"><g transform="translate(479.394354, 265.706641)"><g><path d="M 99.96875 1.78125 C 83.226562 1.78125 67.878906 -2.109375 53.921875 -9.890625 C 39.960938 -17.671875 28.878906 -28.539062 20.671875 -42.5 C 12.472656 -56.457031 8.375 -72.144531 8.375 -89.5625 C 8.375 -106.988281 12.472656 -122.632812 20.671875 -136.5 C 28.878906 -150.375 39.960938 -161.203125 53.921875 -168.984375 C 67.878906 -176.765625 83.226562 -180.65625 99.96875 -180.65625 C 116.71875 -180.65625 132.066406 -176.765625 146.015625 -168.984375 C 159.972656 -161.203125 170.96875 -150.375 179 -136.5 C 187.039062 -122.632812 191.0625 -106.988281 191.0625 -89.5625 C 191.0625 -72.144531 187 -56.457031 178.875 -42.5 C 170.757812 -28.539062 159.765625 -17.671875 145.890625 -9.890625 C 132.023438 -2.109375 116.71875 1.78125 99.96875 1.78125 Z M 99.96875 -37.8125 C 114.175781 -37.8125 125.550781 -42.546875 134.09375 -52.015625 C 142.632812 -61.484375 146.90625 -74 146.90625 -89.5625 C 146.90625 -105.300781 142.632812 -117.863281 134.09375 -127.25 C 125.550781 -136.632812 114.175781 -141.328125 99.96875 -141.328125 C 85.59375 -141.328125 74.132812 -136.675781 65.59375 -127.375 C 57.050781 -118.070312 52.78125 -105.46875 52.78125 -89.5625 C 52.78125 -73.832031 57.050781 -61.273438 65.59375 -51.890625 C 74.132812 -42.503906 85.59375 -37.8125 99.96875 -37.8125 Z M 99.96875 -37.8125 "/></g></g></g><g fill="#000000" fill-opacity="1"><g transform="translate(678.833103, 265.706641)"><g><path d="M 106.5625 0 L 69.515625 -67.234375 L 59.125 -67.234375 L 59.125 0 L 15.734375 0 L 15.734375 -178.125 L 88.546875 -178.125 C 102.585938 -178.125 114.554688 -175.671875 124.453125 -170.765625 C 134.347656 -165.859375 141.75 -159.132812 146.65625 -150.59375 C 151.5625 -142.050781 154.015625 -132.535156 154.015625 -122.046875 C 154.015625 -110.203125 150.671875 -99.628906 143.984375 -90.328125 C 137.304688 -81.023438 127.457031 -74.425781 114.4375 -70.53125 L 155.546875 0 Z M 59.125 -97.9375 L 86.015625 -97.9375 C 93.960938 -97.9375 99.921875 -99.878906 103.890625 -103.765625 C 107.867188 -107.660156 109.859375 -113.160156 109.859375 -120.265625 C 109.859375 -127.035156 107.867188 -132.363281 103.890625 -136.25 C 99.921875 -140.144531 93.960938 -142.09375 86.015625 -142.09375 L 59.125 -142.09375 Z M 59.125 -97.9375 "/></g></g></g><g fill="#006c67" fill-opacity="1"><g transform="translate(844.274593, 265.706641)"><g><path d="M 260.84375 -178.125 L 214.40625 0 L 161.875 0 L 133.46875 -117.21875 L 104.03125 0 L 51.515625 0 L 6.34375 -178.125 L 52.78125 -178.125 L 78.40625 -48.46875 L 110.125 -178.125 L 157.828125 -178.125 L 188.265625 -48.46875 L 214.15625 -178.125 Z M 260.84375 -178.125 "/></g></g></g><g fill="#006c67" fill-opacity="1"><g transform="translate(1111.207838, 265.706641)"><g><path d="M 59.125 -178.125 L 59.125 0 L 15.734375 0 L 15.734375 -178.125 Z M 59.125 -178.125 "/></g></g></g><g fill="#006c67" fill-opacity="1"><g transform="translate(1186.060821, 265.706641)"><g><path d="M 80.1875 1.78125 C 67.15625 1.78125 55.476562 -0.332031 45.15625 -4.5625 C 34.84375 -8.789062 26.597656 -15.050781 20.421875 -23.34375 C 14.253906 -31.632812 11 -41.613281 10.65625 -53.28125 L 56.84375 -53.28125 C 57.507812 -46.6875 59.785156 -41.65625 63.671875 -38.1875 C 67.566406 -34.71875 72.644531 -32.984375 78.90625 -32.984375 C 85.332031 -32.984375 90.40625 -34.460938 94.125 -37.421875 C 97.851562 -40.378906 99.71875 -44.484375 99.71875 -49.734375 C 99.71875 -54.128906 98.238281 -57.765625 95.28125 -60.640625 C 92.320312 -63.515625 88.679688 -65.878906 84.359375 -67.734375 C 80.046875 -69.597656 73.914062 -71.71875 65.96875 -74.09375 C 54.46875 -77.644531 45.078125 -81.195312 37.796875 -84.75 C 30.523438 -88.300781 24.269531 -93.539062 19.03125 -100.46875 C 13.789062 -107.40625 11.171875 -116.457031 11.171875 -127.625 C 11.171875 -144.207031 17.171875 -157.191406 29.171875 -166.578125 C 41.179688 -175.960938 56.832031 -180.65625 76.125 -180.65625 C 95.738281 -180.65625 111.550781 -175.960938 123.5625 -166.578125 C 135.570312 -157.191406 142.003906 -144.125 142.859375 -127.375 L 95.90625 -127.375 C 95.570312 -133.125 93.457031 -137.644531 89.5625 -140.9375 C 85.675781 -144.238281 80.6875 -145.890625 74.59375 -145.890625 C 69.351562 -145.890625 65.125 -144.492188 61.90625 -141.703125 C 58.695312 -138.921875 57.09375 -134.90625 57.09375 -129.65625 C 57.09375 -123.90625 59.796875 -119.421875 65.203125 -116.203125 C 70.617188 -112.992188 79.078125 -109.53125 90.578125 -105.8125 C 102.085938 -101.914062 111.4375 -98.191406 118.625 -94.640625 C 125.8125 -91.085938 132.023438 -85.925781 137.265625 -79.15625 C 142.515625 -72.394531 145.140625 -63.6875 145.140625 -53.03125 C 145.140625 -42.882812 142.554688 -33.664062 137.390625 -25.375 C 132.234375 -17.082031 124.75 -10.484375 114.9375 -5.578125 C 105.125 -0.671875 93.539062 1.78125 80.1875 1.78125 Z M 80.1875 1.78125 "/></g></g></g><g fill="#006c67" fill-opacity="1"><g transform="translate(1342.110259, 265.706641)"><g><path d="M 59.125 -143.359375 L 59.125 -107.328125 L 117.21875 -107.328125 L 117.21875 -73.84375 L 59.125 -73.84375 L 59.125 -34.765625 L 124.84375 -34.765625 L 124.84375 0 L 15.734375 0 L 15.734375 -178.125 L 124.84375 -178.125 L 124.84375 -143.359375 Z M 59.125 -143.359375 "/></g></g></g></g></g></svg>